<svg id="visual" viewBox="0 0 900 600" width="900" height="600" xmlns="http://www.w3.org/2000/svg" xmlns:xlink="http://www.w3.org/1999/xlink" version="1.1"><rect x="0" y="0" width="900" height="600" fill="#0c0d0e"></rect><defs><linearGradient id="grad1_0" x1="33.3%" y1="0%" x2="100%" y2="100%"><stop offset="20%" stop-color="#0c0d0e" stop-opacity="1"></stop><stop offset="80%" stop-color="#0c0d0e" stop-opacity="1"></stop></linearGradient></defs><defs><linearGradient id="grad2_0" x1="0%" y1="0%" x2="66.7%" y2="100%"><stop offset="20%" stop-color="#0c0d0e" stop-opacity="1"></stop><stop offset="80%" stop-color="#0c0d0e" stop-opacity="1"></stop></linearGradient></defs><g transform="translate(900, 0)"><path d="M0 486.7C-84.8 473.9 -169.7 461 -243.4 421.5C-317.1 382.1 -379.6 316.2 -418.3 241.5C-457 166.8 -471.9 83.4 -486.7 0L0 0Z" fill="#006023"></path></g><g transform="translate(0, 600)"><path d="M0 -486.7C97 -480.9 193.9 -475 243.4 -421.5C292.8 -368.1 294.7 -267.2 327.4 -189C360 -110.8 423.4 -55.4 486.7 0L0 0Z" fill="#006023"></path></g></svg>