<svg id="visual" viewBox="0 0 960 600" width="960" height="600" xmlns="http://www.w3.org/2000/svg" xmlns:xlink="http://www.w3.org/1999/xlink" version="1.1"><rect x="0" y="0" width="960" height="600" fill="#ffffff"></rect><path d="M0 444L40 422.5C80 401 160 358 240 373.7C320 389.3 400 463.7 480 469.8C560 476 640 414 720 385C800 356 880 360 920 362L960 364L960 601L920 601C880 601 800 601 720 601C640 601 560 601 480 601C400 601 320 601 240 601C160 601 80 601 40 601L0 601Z" fill="#00802f" stroke-linecap="round" stroke-linejoin="miter"></path></svg>